<?xml version="1.0" standalone="no"?>
<!DOCTYPE svg PUBLIC "-//W3C//DTD SVG 20010904//EN"
 "http://www.w3.org/TR/2001/REC-SVG-20010904/DTD/svg10.dtd">
<svg version="1.0" xmlns="http://www.w3.org/2000/svg"
 width="1403.000000pt" height="1403.000000pt" viewBox="0 0 1403.000000 1403.000000"
 preserveAspectRatio="xMidYMid meet">
<metadata>
Created by potrace 1.14, written by Peter Selinger 2001-2017
</metadata>
<g transform="translate(0.000000,1403.000000) scale(0.100000,-0.100000)"
fill="#000000" stroke="none">
<path d="M6679 14026 c-2 -2 -61 -6 -130 -10 -69 -4 -136 -8 -150 -10 -13 -3
-58 -7 -99 -11 -41 -3 -88 -8 -105 -10 -16 -3 -86 -12 -155 -21 -380 -49 -886
-169 -1280 -303 -124 -42 -323 -115 -355 -131 -11 -5 -42 -18 -70 -29 -27 -10
-80 -33 -118 -50 -37 -17 -70 -31 -72 -31 -8 0 -385 -186 -470 -233 -876 -474
-1664 -1153 -2261 -1948 -585 -778 -985 -1617 -1214 -2549 -36 -146 -100 -459
-115 -562 -3 -21 -7 -55 -10 -75 -3 -21 -10 -67 -15 -103 -5 -36 -12 -85 -14
-110 -8 -80 -18 -174 -21 -205 -27 -245 -27 -1047 0 -1240 2 -16 7 -61 10
-100 23 -262 98 -690 175 -995 218 -862 597 -1676 1114 -2390 77 -106 317
-415 335 -430 3 -3 35 -39 71 -80 196 -227 534 -560 745 -735 27 -22 53 -44
59 -50 32 -30 177 -143 296 -232 1041 -776 2281 -1247 3580 -1359 36 -3 81 -8
100 -10 67 -9 816 -12 930 -4 203 15 323 26 390 35 19 3 58 7 85 11 162 18
504 79 700 125 402 95 934 273 1260 424 641 297 1133 604 1630 1019 355 295
762 712 995 1016 19 25 37 47 41 50 17 14 229 308 321 447 229 343 386 632
600 1103 36 78 145 363 193 502 136 396 263 926 310 1298 3 25 8 65 11 90 3
25 7 56 9 70 2 14 7 54 10 90 3 36 8 79 9 95 28 230 29 1014 1 1255 -2 19 -6
60 -9 90 -3 30 -8 78 -11 105 -8 68 -45 326 -50 345 -2 8 -6 33 -10 55 -26
183 -113 546 -190 805 -468 1556 -1473 2910 -2835 3817 -303 202 -630 387
-915 516 -66 30 -146 66 -177 80 -119 55 -390 158 -563 216 -485 161 -924 259
-1425 317 -25 3 -58 7 -75 9 -16 2 -73 7 -125 10 -52 4 -106 9 -120 12 -29 6
-815 15 -821 9z"/>
</g>
</svg>
